<?xml version="1.0" encoding="UTF-8"?>
<svg version="1.1" viewBox="0 0 1600 1600" width="1280" height="1280" xmlns="http://www.w3.org/2000/svg">
<path transform="translate(438,273)" d="m0 0h231l1 558c6.27-7.8 6.27-7.8 12.3-15.8 8.28-11.1 17-21.8 25.7-32.6 2.97-3.64 5.9-7.31 8.83-11 2.89-3.6 5.81-7.17 8.72-10.8 3.9-4.79 7.75-9.6 11.5-14.5 3.24-4.13 6.57-8.17 9.88-12.2 3.54-4.34 7.03-8.73 10.5-13.2 4.68-6 9.5-11.9 14.4-17.7 4.2-5.09 8.31-10.2 12.4-15.4 3.4-4.35 6.87-8.63 10.4-12.9 7.02-8.54 14-17.1 20.8-25.9 1.93-2.47 3.92-4.89 5.91-7.31 3.37-4.1 6.67-8.25 9.94-12.4 4.76-6.11 9.66-12.1 14.6-18 4.27-5.17 8.46-10.4 12.6-15.7 1.21-1.55 2.42-3.1 3.64-4.64 0.65-1.04 1.29-2.08 1.96-3.15 1.73-2.04 2.69-2.77 5.31-3.4 2.97-0.21 5.88-0.22 8.85-0.17 1.13-0.01 2.27-0.01 3.44-0.02 3.81-0.01 7.62 0.03 11.4 0.06h8.18c5.89-0.01 11.8 0.01 17.6 0.05 8.5 0.04 17 0.06 25.5 0.07 13.8 0.01 27.6 0.05 41.4 0.11 13.4 0.05 26.8 0.09 40.2 0.12 0.82 0 1.65 0 2.5 0.01 4.15 0 8.29 0.01 12.4 0.02 34.4 0.06 68.8 0.17 103 0.3-0.41 0.47-0.81 0.95-1.23 1.43-0.54 0.63-1.08 1.25-1.63 1.9-0.53 0.62-1.06 1.23-1.61 1.87-1.99 2.34-3.92 4.72-5.84 7.11-2.98 3.65-6.02 7.21-9.19 10.7-3.85 4.22-7.47 8.59-11.1 13-4.21 5.13-8.56 10.1-12.9 15.2-14.8 17.1-14.8 17.1-29.2 34.5-3.58 4.4-7.33 8.61-11.2 12.8-2.23 2.51-4.36 5.08-6.48 7.7-3.62 4.47-7.34 8.84-11.1 13.2-4.11 4.72-8.2 9.46-12.2 14.2-0.45 0.53-0.9 1.06-1.36 1.61-1.34 1.59-2.68 3.18-4.02 4.77-5.83 6.92-11.7 13.8-17.6 20.6-3.7 4.25-7.34 8.51-10.9 12.9-4.6 5.67-9.38 11.2-14.2 16.7-4.64 5.33-9.24 10.7-13.8 16.1-1.53 1.79-3.07 3.57-4.6 5.35-5.36 6.23-10.6 12.5-15.8 18.9-2.6 3.14-5.32 6.17-8.05 9.2-2.23 2.53-4.35 5.13-6.47 7.75-2.93 3.61-5.93 7.12-9.06 10.6-3.82 4.2-7.41 8.54-11 13-2.95 3.57-5.98 7.06-9.02 10.6-6.7 7.68-13.1 15.5-19.5 23.5 4.12 7.91 8.75 15.4 13.6 22.9 2.72 4.19 5.4 8.42 8.08 12.6 1.21 1.9 2.42 3.8 3.63 5.71 0.61 0.95 1.21 1.91 1.84 2.9 1.81 2.84 3.62 5.68 5.43 8.53 5.98 9.38 11.9 18.8 17.9 28.2 3.83 6.07 7.68 12.1 11.5 18.2 4.35 6.82 8.68 13.7 13 20.5 6.05 9.58 12.1 19.1 18.2 28.7 3.51 5.52 7.02 11 10.5 16.6 2.9 4.56 5.81 9.12 8.71 13.7 6.02 9.43 12 18.9 17.9 28.4 7.13 11.4 14.4 22.8 21.7 34.2 9.87 15.4 19.6 30.9 29.4 46.3 7.56 12 15.2 23.9 22.8 35.9 3.51 5.51 7.02 11 10.5 16.5 2.94 4.62 5.88 9.25 8.82 13.9 7.99 12.6 16 25.1 23.9 37.7 1.47 2.34 2.94 4.67 4.42 7 0.48 0.77 0.96 1.54 1.46 2.33 2.79 4.41 5.58 8.81 8.39 13.2 0.62 0.98 1.25 1.97 1.9 2.98 1.22 1.9 2.43 3.81 3.65 5.71 0.56 0.87 1.11 1.74 1.69 2.64 0.73 1.15 0.73 1.15 1.48 2.32 1.93 3.13 3.73 6.32 5.55 9.51-33.5 0.21-67.1 0.36-101 0.46-3.96 0.01-7.92 0.02-11.9 0.03-0.79 0.01-1.58 0.01-2.39 0.01-12.8 0.04-25.5 0.11-38.3 0.19-13.1 0.09-26.2 0.14-39.3 0.16-8.08 0.01-16.2 0.05-24.2 0.12-6.19 0.05-12.4 0.06-18.6 0.05-2.54 0-5.09 0.02-7.63 0.05-3.47 0.05-6.93 0.04-10.4 0.01-1.01 0.03-2.02 0.05-3.06 0.08-6.67-0.13-6.67-0.13-9.61-3.14-1.54-2.28-2.84-4.56-4.07-7.02-0.58-0.94-1.15-1.88-1.74-2.84-0.47-0.81-0.94-1.62-1.42-2.45-0.54-0.93-1.08-1.86-1.63-2.81-0.57-0.98-1.13-1.96-1.71-2.96-1.24-2.14-2.48-4.28-3.72-6.41-0.63-1.09-1.25-2.17-1.9-3.29-2.95-5.09-5.92-10.2-8.88-15.2-3.51-6.02-7.03-12-10.5-18.1-7.77-13.3-15.6-26.6-23.5-39.9-8.46-14.3-16.9-28.6-25.2-43-2.92-5.01-5.85-10-8.77-15-3.47-5.94-6.93-11.9-10.4-17.8-11.4-19.5-22.8-39-34.3-58.5-1.55-2.63-3.1-5.25-4.65-7.88-1.18-2.01-2.37-4.01-3.56-6.02-1.95-3.3-3.9-6.61-5.85-9.91-0.61-1.03-1.22-2.06-1.85-3.12-0.56-0.95-1.12-1.91-1.7-2.89-0.5-0.85-0.99-1.69-1.51-2.56-1.1-2.13-1.73-3.97-2.19-6.31-7.3 5.4-14 11.2-19.7 18.2-2.25 2.68-4.59 4.57-7.31 6.75-1.69 1.98-3.35 3.98-5 6-2.69 2.88-2.69 2.88-5 5h-2l-1 3c-1.94 2.19-1.94 2.19-4 4h-2l-1 3c-1.66 1.34-3.33 2.67-5 4-1.19 1.44-2.37 2.88-3.54 4.34-2.84 3.22-6.19 5.89-9.46 8.66-2.04 2.04-1.15 6.32-1.15 9.12-0.01 0.87-0.01 1.73-0.01 2.62-0.02 2.91-0.02 5.82-0.03 8.73-0.01 2.07-0.02 4.15-0.02 6.23-0.02 4.48-0.04 8.97-0.05 13.4-0.02 7.08-0.05 14.2-0.08 21.2-0.06 15-0.11 30.1-0.16 45.1-0.06 16.2-0.11 32.4-0.18 48.7-0.03 7.05-0.05 14.1-0.07 21.2-0.01 4.37-0.03 8.75-0.05 13.1-0.01 2.04-0.01 4.08-0.02 6.12 0 2.77-0.01 5.54-0.03 8.31v2.47c-0.04 5.54-0.04 5.54-1.15 6.65h-230v-1054z" fill="#000100"/>
</svg>
